<?xml version="1.0" standalone="no"?>
<!DOCTYPE svg PUBLIC "-//W3C//DTD SVG 20010904//EN"
 "http://www.w3.org/TR/2001/REC-SVG-20010904/DTD/svg10.dtd">
<svg version="1.0" xmlns="http://www.w3.org/2000/svg"
 width="224.000000pt" height="224.000000pt" viewBox="0 0 224.000000 224.000000"
 preserveAspectRatio="xMidYMid meet">
<metadata>
Created by potrace 1.16, written by Peter Selinger 2001-2019
</metadata>
<g transform="translate(0.000000,224.000000) scale(0.100000,-0.100000)"
fill="#000000" stroke="none">
<path d="M980 2033 c-353 -59 -638 -316 -747 -670 -24 -79 -27 -104 -27 -248
-1 -137 2 -172 22 -243 90 -331 345 -584 677 -673 105 -29 325 -32 427 -6 367
92 634 361 715 720 24 108 21 299 -6 412 -28 119 -113 289 -191 383 -137 165
-343 284 -554 321 -57 11 -264 13 -316 4z m378 -319 l52 -7 0 -108 0 -109 -78
0 c-47 0 -83 -5 -90 -12 -7 -7 -12 -41 -12 -85 l0 -72 93 -3 92 -3 -3 -65 c-2
-36 -7 -83 -11 -105 l-6 -40 -83 -3 -82 -3 0 -304 0 -305 -125 0 -125 0 0 299
c0 336 7 311 -81 311 l-49 0 0 110 0 110 63 0 62 0 3 116 c2 117 15 168 50
207 51 57 192 87 330 71z"/>
</g>
</svg>
